Coordinates
version=1
nRows=32
nColumns=12
inDegrees=yes

Units are S.I. units (second, meters, Newtons, ...)
Angles are in degrees

endheader
time	SC_y	SC_z	SC_x	AC_y	AC_z	AC_x	GH_y	GH_z	GH_yy	EL_x	PS_y
       0.0              -11.45          32.13          84.09          40.41         -13.48         -2.831          160.2          1.132          50.97          131.4          86.77
 0.0003283              -11.46          32.12          84.08          40.41         -13.48         -2.828          160.1          1.143          50.97          131.4          86.76
 0.0006565              -11.47          32.12          84.07          40.41         -13.48         -2.825          160.1          1.156          50.96          131.4          86.75
 0.0009848              -11.47          32.12          84.06          40.41         -13.48         -2.821          160.1           1.17          50.95          131.4          86.75
  0.001313              -11.48          32.11          84.05          40.41         -13.47         -2.818          160.1          1.184          50.94          131.4          86.74
  0.001641              -11.49          32.11          84.04          40.41         -13.47         -2.814          160.0          1.199          50.93          131.4          86.73
   0.00197              -11.49           32.1          84.02          40.41         -13.47          -2.81          160.0          1.215          50.92          131.4          86.72
  0.002298               -11.5           32.1          84.01          40.41         -13.47         -2.806          159.9          1.233          50.91          131.3          86.71
  0.002626              -11.51          32.09           84.0          40.41         -13.46         -2.801          159.9          1.251          50.89          131.3           86.7
  0.002954              -11.52          32.09          83.98          40.41         -13.46         -2.796          159.9          1.271          50.88          131.3          86.69
  0.003283              -11.53          32.08          83.96          40.41         -13.46         -2.791          159.8          1.293          50.86          131.3          86.68
  0.003611              -11.54          32.07          83.95          40.41         -13.45         -2.785          159.8          1.316          50.85          131.3          86.66
  0.003939              -11.55          32.06          83.93          40.41         -13.45         -2.779          159.7          1.341          50.83          131.2          86.65
  0.004268              -11.57          32.06          83.91          40.41         -13.44         -2.773          159.7          1.368          50.81          131.2          86.64
  0.004596              -11.58          32.05          83.88          40.41         -13.44         -2.766          159.6          1.397          50.79          131.2          86.62
  0.004924              -11.59          32.04          83.86          40.41         -13.44         -2.758          159.5          1.428          50.77          131.2           86.6
  0.005252              -11.61          32.03          83.83          40.41         -13.43          -2.75          159.4          1.463          50.75          131.1          86.58
  0.005581              -11.63          32.02           83.8          40.41         -13.42          -2.74          159.4            1.5          50.72          131.1          86.56
  0.005909              -11.65          32.01          83.77          40.41         -13.42          -2.73          159.3          1.541           50.7          131.1          86.54
  0.006237              -11.67          31.99          83.74          40.41         -13.41         -2.719          159.2          1.585          50.66          131.0          86.51
  0.006565              -11.69          31.98           83.7          40.41          -13.4         -2.707          159.1          1.634          50.63          131.0          86.49
  0.006894              -11.72          31.96          83.66          40.41         -13.39         -2.694          158.9          1.688          50.59          130.9          86.46
  0.007222              -11.74          31.94          83.61          40.41         -13.38          -2.68          158.8          1.748          50.55          130.9          86.42
   0.00755              -11.77          31.92          83.56          40.41         -13.37         -2.663          158.7          1.814          50.51          130.8          86.39
  0.007879              -11.81           31.9           83.5          40.41         -13.36         -2.645          158.5          1.887          50.46          130.7          86.35
  0.008207              -11.85          31.88          83.44          40.41         -13.35         -2.625          158.3          1.969           50.4          130.7           86.3
  0.008535              -11.89          31.85          83.37          40.41         -13.33         -2.603          158.1          2.061          50.34          130.6          86.25
  0.008863              -11.94          31.82          83.29          40.41         -13.32         -2.577          157.9          2.164          50.27          130.5          86.19
  0.009192              -11.99          31.78           83.2          40.41          -13.3         -2.549          157.7          2.281          50.19          130.4          86.13
   0.00952              -12.06          31.75          83.09          40.41         -13.28         -2.516          157.4          2.414           50.1          130.2          86.05
  0.009848              -12.13           31.7          82.98          40.41         -13.26         -2.479          157.0          2.565           50.0          130.1          85.97
   0.01018              -12.21          31.65          82.84           40.4         -13.23         -2.437          156.6          2.738          49.88          129.9          85.87
